<svg width="31" height="20" viewBox="0 0 31 20" fill="none" xmlns="http://www.w3.org/2000/svg">
<path d="M19.3889 9.99978C19.3889 10.8019 19.1511 11.586 18.7054 12.2529C18.2598 12.9199 17.6264 13.4397 16.8854 13.7466C16.1443 14.0536 15.3289 14.1339 14.5422 13.9774C13.7555 13.8209 13.0328 13.4347 12.4656 12.8675C11.8985 12.3003 11.5122 11.5777 11.3557 10.791C11.1992 10.0043 11.2796 9.18884 11.5865 8.44779C11.8935 7.70673 12.4133 7.07334 13.0802 6.62771C13.7471 6.18208 14.5312 5.94423 15.3334 5.94423C16.409 5.94423 17.4405 6.37151 18.2011 7.13207C18.9616 7.89264 19.3889 8.92418 19.3889 9.99978ZM24.4584 1.88867C24.673 3.15517 25.2763 4.32353 26.1846 5.23185C27.0929 6.14017 28.2613 6.74346 29.5278 6.95812V1.88867H24.4584ZM24.4584 18.1109H29.5278V13.0414C28.2613 13.2561 27.0929 13.8594 26.1846 14.7677C25.2763 15.676 24.673 16.8444 24.4584 18.1109ZM1.13892 13.0414V18.1109H6.20836C5.9937 16.8444 5.39041 15.676 4.48209 14.7677C3.57378 13.8594 2.40541 13.2561 1.13892 13.0414ZM1.13892 6.95812C2.40541 6.74346 3.57378 6.14017 4.48209 5.23185C5.39041 4.32353 5.9937 3.15517 6.20836 1.88867H1.13892V6.95812Z" fill="white"/>
<path d="M15.3333 4.93056C14.3307 4.93056 13.3506 5.22787 12.5169 5.78491C11.6832 6.34195 11.0335 7.13369 10.6498 8.06001C10.2661 8.98633 10.1657 10.0056 10.3613 10.989C10.5569 11.9724 11.0397 12.8757 11.7487 13.5846C12.4577 14.2936 13.361 14.7764 14.3443 14.972C15.3277 15.1676 16.347 15.0673 17.2733 14.6836C18.1996 14.2999 18.9914 13.6501 19.5484 12.8164C20.1055 11.9828 20.4028 11.0026 20.4028 10C20.4028 8.6555 19.8687 7.36607 18.918 6.41536C17.9673 5.46466 16.6778 4.93056 15.3333 4.93056ZM15.3333 13.0417C14.7317 13.0417 14.1437 12.8633 13.6435 12.5291C13.1433 12.1948 12.7534 11.7198 12.5232 11.164C12.293 10.6082 12.2327 9.99663 12.3501 9.4066C12.4675 8.81657 12.7572 8.2746 13.1825 7.84922C13.6079 7.42383 14.1499 7.13414 14.7399 7.01678C15.33 6.89941 15.9415 6.95965 16.4973 7.18987C17.0531 7.42008 17.5282 7.80994 17.8624 8.31014C18.1966 8.81034 18.375 9.39841 18.375 10C18.375 10.8067 18.0545 11.5804 17.4841 12.1508C16.9137 12.7212 16.14 13.0417 15.3333 13.0417ZM29.5278 0.875H1.13889C0.869989 0.875 0.612102 0.98182 0.421961 1.17196C0.23182 1.3621 0.125 1.61999 0.125 1.88889V18.1111C0.125 18.38 0.23182 18.6379 0.421961 18.828C0.612102 19.0182 0.869989 19.125 1.13889 19.125H29.5278C29.7967 19.125 30.0546 19.0182 30.2447 18.828C30.4348 18.6379 30.5417 18.38 30.5417 18.1111V1.88889C30.5417 1.61999 30.4348 1.3621 30.2447 1.17196C30.0546 0.98182 29.7967 0.875 29.5278 0.875ZM2.15278 2.90278H4.86113C4.3382 4.11889 3.36889 5.08821 2.15278 5.61113V2.90278ZM2.15278 17.0972V14.3889C3.36889 14.9118 4.3382 15.8811 4.86113 17.0972H2.15278ZM28.5139 17.0972H25.8055C26.3285 15.8811 27.2978 14.9118 28.5139 14.3889V17.0972ZM28.5139 12.2369C27.3626 12.5773 26.3148 13.2003 25.4659 14.0492C24.617 14.8981 23.994 15.946 23.6536 17.0972H7.01311C6.6727 15.946 6.04967 14.8981 5.20076 14.0492C4.35185 13.2003 3.30404 12.5773 2.15278 12.2369V7.76311C3.30404 7.4227 4.35185 6.79967 5.20076 5.95076C6.04967 5.10185 6.6727 4.05404 7.01311 2.90278H23.6536C23.994 4.05404 24.617 5.10185 25.4659 5.95076C26.3148 6.79967 27.3626 7.4227 28.5139 7.76311V12.2369ZM28.5139 5.61113C27.2978 5.08821 26.3285 4.11889 25.8055 2.90278H28.5139V5.61113Z" fill="black"/>
</svg>
