<svg width="70" height="70" viewBox="0 0 70 70" fill="none" xmlns="http://www.w3.org/2000/svg">
<circle cx="35" cy="35" r="33.5" fill="#0009FF" fill-opacity="0.15" stroke="#0009FF" stroke-width="3"/>
<path d="M18 51.5L28.5 23L47 41L18 51.5Z" fill="white" stroke="black"/>
<path d="M31.0334 22.457C30.6957 22.1202 30.2787 21.8739 29.8208 21.7409C29.3629 21.6078 28.8789 21.5922 28.4134 21.6955C27.9479 21.7988 27.5159 22.0177 27.1573 22.332C26.7986 22.6463 26.525 23.0458 26.3615 23.4938L16.9297 49.437C16.7747 49.8648 16.7247 50.3236 16.7837 50.7748C16.8428 51.2259 17.0092 51.6563 17.269 52.0299C17.5288 52.4034 17.8745 52.7092 18.2769 52.9215C18.6794 53.1338 19.1269 53.2464 19.5819 53.25C19.9169 53.2477 20.2489 53.1869 20.563 53.0703L46.5044 43.6367C46.9525 43.4734 47.3523 43.1999 47.6667 42.8414C47.9812 42.4829 48.2003 42.0509 48.3038 41.5854C48.4073 41.1198 48.3919 40.6357 48.2589 40.1777C48.1259 39.7197 47.8797 39.3026 47.543 38.9648L31.0334 22.457ZM29.5366 46.7525L23.2475 40.4634L25.6122 33.957L36.043 44.3878L29.5366 46.7525ZM19.6537 50.3462L22.1694 43.4445L26.5627 47.8378L19.6537 50.3462ZM39.0312 43.3025L26.6975 30.9688L29.0334 24.5234L45.4623 40.9522L39.0312 43.3025ZM39.75 25.9375C39.777 24.9657 40.0123 24.011 40.44 23.138C41.3923 21.2351 43.1892 20.1875 45.5 20.1875C46.7039 20.1875 47.4766 19.776 47.9527 18.892C48.2035 18.3974 48.3473 17.8555 48.375 17.3017C48.3764 16.9205 48.5292 16.5554 48.7998 16.2868C49.0704 16.0183 49.4366 15.8682 49.8179 15.8696C50.1991 15.871 50.5642 16.0239 50.8328 16.2945C51.1013 16.565 51.2514 16.9313 51.25 17.3125C51.25 19.6233 49.7191 23.0625 45.5 23.0625C44.2961 23.0625 43.5234 23.474 43.0473 24.358C42.7965 24.8526 42.6527 25.3945 42.625 25.9483C42.6243 26.1371 42.5864 26.3238 42.5135 26.498C42.4406 26.6721 42.3341 26.8302 42.2001 26.9632C42.0662 27.0962 41.9073 27.2014 41.7326 27.273C41.5579 27.3446 41.3709 27.3811 41.1821 27.3804C40.9933 27.3797 40.8065 27.3418 40.6324 27.2689C40.4583 27.196 40.3002 27.0895 40.1672 26.9555C40.0342 26.8216 39.9289 26.6627 39.8574 26.488C39.7858 26.3133 39.7493 26.1263 39.75 25.9375ZM35.4375 20.1875V15.875C35.4375 15.4938 35.5889 15.1281 35.8585 14.8585C36.1281 14.589 36.4937 14.4375 36.875 14.4375C37.2562 14.4375 37.6219 14.589 37.8915 14.8585C38.161 15.1281 38.3125 15.4938 38.3125 15.875V20.1875C38.3125 20.5687 38.161 20.9344 37.8915 21.204C37.6219 21.4735 37.2562 21.625 36.875 21.625C36.4937 21.625 36.1281 21.4735 35.8585 21.204C35.5889 20.9344 35.4375 20.5687 35.4375 20.1875ZM53.7045 34.983C53.838 35.1165 53.9438 35.2751 54.016 35.4495C54.0881 35.624 54.1252 35.8109 54.1252 35.9997C54.1251 36.1885 54.0878 36.3755 54.0155 36.5499C53.9432 36.7243 53.8372 36.8827 53.7036 37.0161C53.5701 37.1496 53.4115 37.2554 53.2371 37.3276C53.0626 37.3997 52.8757 37.4368 52.6869 37.4368C52.4981 37.4367 52.3111 37.3994 52.1367 37.3271C51.9623 37.2548 51.8039 37.1488 51.6705 37.0152L48.7955 34.1402C48.5257 33.8705 48.3742 33.5047 48.3742 33.1232C48.3742 32.7417 48.5257 32.3759 48.7955 32.1062C49.0652 31.8364 49.431 31.6849 49.8125 31.6849C50.194 31.6849 50.5598 31.8364 50.8295 32.1062L53.7045 34.983ZM54.5796 27.3013L50.2671 28.7388C49.9054 28.8594 49.5106 28.8313 49.1696 28.6608C48.8286 28.4903 48.5692 28.1913 48.4487 27.8296C48.3281 27.4679 48.3562 27.0731 48.5267 26.7321C48.6972 26.3911 48.9962 26.1317 49.3579 26.0112L53.6704 24.5737C54.0321 24.4531 54.4269 24.4812 54.7679 24.6517C55.1089 24.8222 55.3683 25.1212 55.4888 25.4829C55.6094 25.8446 55.5813 26.2394 55.4108 26.5804C55.2403 26.9214 54.9413 27.1808 54.5796 27.3013Z" fill="#0009FF"/>
</svg>
